<svg xmlns="http://www.w3.org/2000/svg" width="1200" height="980" viewBox="0 0 1200 980" role="img" aria-labelledby="title desc">
  <title id="title">Abstract ice glass AI strategy visual</title>
  <desc id="desc">A dark executive AI strategy visual with translucent ice glass architecture and subtle grid lines.</desc>
  <defs>
    <linearGradient id="bg" x1="0" y1="0" x2="1" y2="1">
      <stop offset="0" stop-color="#07111c"/>
      <stop offset="0.52" stop-color="#061927"/>
      <stop offset="1" stop-color="#02050b"/>
    </linearGradient>
    <linearGradient id="ice" x1="0" y1="0" x2="1" y2="1">
      <stop offset="0" stop-color="#f5fbff" stop-opacity="0.82"/>
      <stop offset="0.42" stop-color="#9be7ff" stop-opacity="0.24"/>
      <stop offset="1" stop-color="#33d6e8" stop-opacity="0.08"/>
    </linearGradient>
    <linearGradient id="edge" x1="0" y1="0" x2="1" y2="0">
      <stop offset="0" stop-color="#d7f7ff" stop-opacity="0"/>
      <stop offset="0.5" stop-color="#d7f7ff" stop-opacity="0.72"/>
      <stop offset="1" stop-color="#d7f7ff" stop-opacity="0"/>
    </linearGradient>
    <radialGradient id="glow" cx="62%" cy="35%" r="46%">
      <stop offset="0" stop-color="#9be7ff" stop-opacity="0.34"/>
      <stop offset="0.58" stop-color="#33d6e8" stop-opacity="0.08"/>
      <stop offset="1" stop-color="#33d6e8" stop-opacity="0"/>
    </radialGradient>
    <filter id="blur">
      <feGaussianBlur stdDeviation="28"/>
    </filter>
  </defs>

  <rect width="1200" height="980" fill="url(#bg)"/>
  <rect width="1200" height="980" fill="url(#glow)"/>

  <g opacity="0.22">
    <path d="M0 150H1200M0 260H1200M0 370H1200M0 480H1200M0 590H1200M0 700H1200M0 810H1200" stroke="#d7f7ff" stroke-width="1"/>
    <path d="M120 0V980M240 0V980M360 0V980M480 0V980M600 0V980M720 0V980M840 0V980M960 0V980M1080 0V980" stroke="#d7f7ff" stroke-width="1"/>
  </g>

  <g filter="url(#blur)" opacity="0.55">
    <ellipse cx="720" cy="390" rx="330" ry="170" fill="#33d6e8" opacity="0.22"/>
    <ellipse cx="420" cy="740" rx="250" ry="110" fill="#9be7ff" opacity="0.12"/>
  </g>

  <g transform="translate(215 120)">
    <path d="M402 0L746 188L721 584L384 760L55 562L38 178Z" fill="url(#ice)" stroke="#d7f7ff" stroke-opacity="0.42" stroke-width="2"/>
    <path d="M402 0L384 760M38 178L721 584M55 562L746 188" stroke="#d7f7ff" stroke-opacity="0.22" stroke-width="2"/>
    <path d="M253 210L493 94L633 269L598 511L371 630L174 470L163 278Z" fill="#d7f7ff" opacity="0.045" stroke="#d7f7ff" stroke-opacity="0.28" stroke-width="2"/>
    <path d="M359 282L489 220L564 313L546 445L421 510L311 423L305 319Z" fill="#ffffff" opacity="0.055" stroke="#9be7ff" stroke-opacity="0.34" stroke-width="2"/>
    <path d="M410 335L482 300L524 352L514 425L445 462L382 414L379 356Z" fill="#9be7ff" opacity="0.13" stroke="#f5fbff" stroke-opacity="0.42" stroke-width="2"/>
  </g>

  <g opacity="0.56">
    <path d="M134 706C292 624 407 606 548 652C730 711 852 642 1038 514" fill="none" stroke="url(#edge)" stroke-width="2"/>
    <path d="M168 326C304 388 449 408 595 352C756 290 867 308 1036 405" fill="none" stroke="url(#edge)" stroke-width="2"/>
  </g>

  <g fill="#d7f7ff" opacity="0.68">
    <circle cx="180" cy="705" r="4"/>
    <circle cx="545" cy="652" r="4"/>
    <circle cx="1036" cy="514" r="4"/>
    <circle cx="168" cy="326" r="4"/>
    <circle cx="595" cy="352" r="4"/>
    <circle cx="1036" cy="405" r="4"/>
  </g>

  <g opacity="0.34">
    <rect x="90" y="86" width="210" height="1" fill="#d7f7ff"/>
    <rect x="90" y="86" width="1" height="92" fill="#d7f7ff"/>
    <rect x="900" y="810" width="210" height="1" fill="#d7f7ff"/>
    <rect x="1110" y="718" width="1" height="92" fill="#d7f7ff"/>
  </g>
</svg>
